<svg id="Capa_1" enable-background="new 0 0 512.095 512.095" height="512" viewBox="0 0 512.095 512.095" width="512" xmlns="http://www.w3.org/2000/svg"><path d="m418.983 311.37v107.02h-386.88s0-145.871 0-198.309c0-11.556 9.368-20.921 20.924-20.921h109.617 25.309 231.03z" fill="#e5eef8"/><path d="m167.953 199.16v92.87c0 21.692 17.648 39.341 39.341 39.341h211.688v-20-112.211h-231.03z" fill="#c5e1ff"/><path d="m187.953 224.16h-25.309-101.833c-2.048 0-3.708 1.66-3.708 3.708v147.946c0 2.048 1.66 3.708 3.708 3.708h329.464c2.048 0 3.708-1.66 3.708-3.708v-64.444-83.503c0-2.048-1.66-3.708-3.708-3.708h-202.322z" fill="#65daf9"/><path d="m125.841 363.243c-16.126 0-29.199-13.073-29.199-29.199v-109.884h-35.831c-2.048 0-3.708 1.66-3.708 3.708v147.946c0 2.048 1.66 3.708 3.708 3.708h329.464c2.048 0 3.708-1.66 3.708-3.708v-12.571z" fill="#1acff8"/><path d="m390.275 224.16h-202.322-20v67.87c0 21.692 17.648 39.341 39.341 39.341h186.688v-20-83.503c.001-2.048-1.659-3.708-3.707-3.708z" fill="#1acff8"/><path d="m350.798 111.387h-143.504c-10.682 0-19.342 8.66-19.342 19.342v161.3c0 10.682 8.66 19.342 19.342 19.342h239.683c10.682 0 19.342-8.66 19.342-19.342v-76.5-104.142z" fill="#e5eef8"/><path d="m377.528 279.241c-86.044 0-155.797-69.753-155.797-155.797v-12.056h-14.437c-10.682 0-19.342 8.66-19.342 19.342v161.3c0 10.682 8.66 19.342 19.342 19.342h239.683c10.682 0 19.342-8.66 19.342-19.342v-12.788h-88.791z" fill="#d5e2f3"/><path d="m207.294 111.387c-10.682 0-19.342 8.66-19.342 19.341v19.058h278.366v-38.399h-115.52z" fill="#fd6773"/><path d="m221.731 111.387h-14.437c-10.682 0-19.342 8.66-19.342 19.341v19.058h36.007c-1.459-8.564-2.229-17.363-2.229-26.343v-12.056z" fill="#fc4d5a"/><circle cx="210.933" cy="129.876" fill="#e81c18" r="5.12"/><circle cx="229.429" cy="129.876" fill="#fdc33f" r="5.12"/><circle cx="247.925" cy="129.876" fill="#8fffa6" r="5.12"/><path d="m421.629 442.452h-392.173c-12.126 0-21.956-9.83-21.956-21.956v-10.727c0-2.419 1.961-4.379 4.379-4.379h427.327c2.419 0 4.379 1.961 4.379 4.379v10.727c.001 12.126-9.83 21.956-21.956 21.956z" fill="#c5e1ff"/><path d="m500.894 120.478h-11.323c-1.177-4.58-2.999-8.9-5.347-12.871l8.018-8.018c1.445-1.445 1.445-3.789 0-5.234l-12.36-12.36c-1.445-1.445-3.788-1.445-5.234 0l-8.018 8.018c-3.971-2.348-8.291-4.169-12.871-5.347v-11.323c0-2.044-1.657-3.701-3.701-3.701h-17.479c-2.044 0-3.701 1.657-3.701 3.701v11.323c-4.58 1.178-8.9 2.999-12.871 5.347l-8.018-8.018c-1.445-1.445-3.788-1.445-5.234 0l-12.36 12.36c-1.445 1.445-1.445 3.789 0 5.234l8.018 8.018c-2.348 3.971-4.169 8.291-5.347 12.871h-11.323c-2.044 0-3.701 1.657-3.701 3.701v17.48c0 2.044 1.657 3.701 3.701 3.701h11.323c1.177 4.58 2.999 8.9 5.347 12.871l-8.018 8.018c-1.445 1.446-1.445 3.788 0 5.234l12.36 12.36c1.445 1.445 3.788 1.445 5.234 0l8.018-8.018c3.971 2.348 8.291 4.169 12.871 5.347v11.323c0 2.044 1.657 3.701 3.701 3.701h17.479c2.044 0 3.701-1.657 3.701-3.701v-11.325c4.58-1.178 8.9-2.999 12.871-5.347l8.018 8.018c1.445 1.445 3.789 1.445 5.234 0l12.36-12.36c1.445-1.446 1.445-3.788 0-5.234l-8.018-8.018c2.348-3.971 4.169-8.291 5.347-12.871h11.323c2.044 0 3.701-1.657 3.701-3.701v-17.48c0-2.042-1.657-3.699-3.701-3.699z" fill="#fdcf8a"/><circle cx="441.319" cy="132.918" fill="#fcb64d" r="23.371"/><path d="m107.596 287.103h-18.456c-1.701 0-3.081-1.379-3.081-3.081v-18.456c0-1.701 1.379-3.081 3.081-3.081h18.456c1.701 0 3.081 1.379 3.081 3.081v18.456c-.001 1.702-1.38 3.081-3.081 3.081z" fill="#05f2a7"/><path d="m89.14 287.103h7.502v-24.618h-7.502c-1.701 0-3.081 1.379-3.081 3.081v18.456c0 1.702 1.379 3.081 3.081 3.081z" fill="#13e29d"/><path d="m107.596 341.206h-18.456c-1.701 0-3.081-1.379-3.081-3.081v-18.456c0-1.701 1.379-3.081 3.081-3.081h18.456c1.701 0 3.081 1.379 3.081 3.081v18.456c-.001 1.702-1.38 3.081-3.081 3.081z" fill="#05f2a7"/><path d="m89.14 341.206h8.39c-.578-2.292-.888-4.69-.888-7.162v-17.456h-7.502c-1.701 0-3.081 1.379-3.081 3.081v18.456c0 1.702 1.379 3.081 3.081 3.081z" fill="#13e29d"/><path d="m466.319 208.029c-4.142 0-7.5 3.357-7.5 7.5v76.5c0 6.529-5.312 11.842-11.842 11.842h-27.975c-.007 0-.013-.001-.019-.001s-.013.001-.019.001h-24.961c-.007 0-.013-.001-.019-.001s-.013.001-.019.001h-41.097c-4.142 0-7.5 3.357-7.5 7.5s3.358 7.5 7.5 7.5h33.616v53.15h-321.881v-140.361h115.85v60.369c0 14.801 12.041 26.842 26.841 26.842h115.572c4.142 0 7.5-3.357 7.5-7.5s-3.358-7.5-7.5-7.5h-115.572c-6.529 0-11.841-5.313-11.841-11.842v-136.126h154.122c4.142 0 7.5-3.357 7.5-7.5s-3.358-7.5-7.5-7.5h-154.122v-10.175c0-6.529 5.312-11.842 11.841-11.842h143.503c4.142 0 7.5-3.357 7.5-7.5s-3.358-7.5-7.5-7.5h-143.503c-14.8 0-26.841 12.041-26.841 26.842v16.803c-.033.286-.055.576-.055.872s.021.585.055.872v42.385h-127.427c-15.673 0-28.423 12.75-28.423 28.421v177.809h-12.619c-6.608 0-11.984 5.376-11.984 11.983v10.623c0 16.242 13.214 29.456 29.457 29.456h392.173c16.242 0 29.456-13.214 29.456-29.456v-10.623c0-6.607-5.376-11.983-11.984-11.983h-12.619v-79.019h20.495c14.801 0 26.842-12.041 26.842-26.842v-76.5c-.001-4.142-3.359-7.5-7.501-7.5zm-54.837 189.861h-316.961c-4.142 0-7.5 3.357-7.5 7.5s3.358 7.5 7.5 7.5h341.564v7.606c0 7.971-6.485 14.456-14.456 14.456h-392.172c-7.971 0-14.457-6.485-14.457-14.456v-7.606h49.521c4.142 0 7.5-3.357 7.5-7.5s-3.358-7.5-7.5-7.5h-24.918v-177.809c0-7.4 6.021-13.421 13.423-13.421h127.427v10h-123.35c-4.142 0-7.5 3.357-7.5 7.5v155.361c0 4.143 3.358 7.5 7.5 7.5h336.88c4.142 0 7.5-3.357 7.5-7.5v-60.65h10v79.019z"/><circle cx="210.933" cy="129.875" r="5.12"/><circle cx="229.429" cy="129.875" r="5.12"/><circle cx="247.925" cy="129.875" r="5.12"/><path d="m500.894 112.978h-5.827c-.498-1.339-1.047-2.659-1.646-3.961l4.125-4.124c4.368-4.368 4.368-11.474 0-15.842l-12.36-12.359c-4.366-4.366-11.472-4.367-15.84 0l-4.125 4.125c-1.301-.6-2.623-1.148-3.961-1.646v-5.827c0-6.176-5.024-11.2-11.201-11.2h-17.479c-6.176 0-11.201 5.024-11.201 11.2v5.827c-1.338.498-2.66 1.047-3.961 1.646l-4.124-4.124c-2.115-2.116-4.928-3.281-7.921-3.281-2.992 0-5.804 1.165-7.92 3.28l-12.36 12.359c-4.368 4.368-4.368 11.474 0 15.842l4.125 4.124c-.599 1.302-1.148 2.622-1.646 3.961h-5.827c-6.176 0-11.201 5.024-11.201 11.201v17.479c0 6.176 5.024 11.2 11.201 11.2h5.827c.498 1.339 1.047 2.66 1.646 3.961l-4.125 4.124c-4.366 4.366-4.367 11.472 0 15.842l12.36 12.359c2.116 2.115 4.928 3.28 7.92 3.28 2.993 0 5.806-1.165 7.92-3.28l4.125-4.125c1.301.6 2.623 1.148 3.961 1.646v5.827c0 6.177 5.024 11.201 11.201 11.201h17.479c6.176 0 11.201-5.024 11.201-11.201v-5.827c1.338-.498 2.66-1.047 3.961-1.646l4.125 4.125c4.366 4.365 11.473 4.365 15.84 0l12.362-12.361c4.365-4.368 4.364-11.474-.002-15.84l-4.125-4.124c.599-1.301 1.148-2.622 1.646-3.961h5.827c6.176 0 11.201-5.024 11.201-11.2v-17.479c0-6.177-5.025-11.201-11.201-11.201zm-3.799 24.88h-7.524c-3.423 0-6.412 2.317-7.264 5.633-.979 3.81-2.506 7.484-4.539 10.921-1.743 2.946-1.269 6.7 1.152 9.121l5.332 5.331-6.987 6.987-5.332-5.332c-2.421-2.421-6.173-2.896-9.12-1.152-3.438 2.032-7.112 3.56-10.922 4.539-3.315.853-5.632 3.841-5.632 7.264v7.524h-9.881v-7.524c0-3.423-2.317-6.411-5.632-7.264-3.809-.979-7.484-2.507-10.922-4.539-2.947-1.742-6.7-1.269-9.12 1.152l-5.332 5.331-6.987-6.986 5.332-5.331c2.421-2.421 2.895-6.174 1.153-9.121-2.032-3.437-3.559-7.111-4.539-10.922-.853-3.314-3.841-5.632-7.264-5.632h-7.524v-9.881h7.524c3.423 0 6.411-2.317 7.264-5.632.979-3.81 2.507-7.484 4.54-10.923 1.742-2.947 1.267-6.699-1.153-9.12l-5.332-5.331 6.987-6.986 5.332 5.331c2.422 2.421 6.174 2.895 9.12 1.152 3.438-2.032 7.113-3.56 10.922-4.539 3.315-.853 5.632-3.841 5.632-7.264v-7.523h9.881v7.523c0 3.423 2.317 6.411 5.632 7.264 3.81.979 7.484 2.507 10.922 4.539 2.948 1.742 6.7 1.269 9.12-1.152l5.332-5.332 6.987 6.987-5.332 5.331c-2.421 2.421-2.895 6.174-1.153 9.121 2.033 3.438 3.56 7.112 4.539 10.921.852 3.315 3.841 5.633 7.264 5.633h7.524z"/><path d="m441.319 102.047c-17.022 0-30.871 13.849-30.871 30.871s13.849 30.871 30.871 30.871 30.871-13.849 30.871-30.871-13.849-30.871-30.871-30.871zm0 46.742c-8.751 0-15.871-7.12-15.871-15.871s7.12-15.871 15.871-15.871 15.871 7.12 15.871 15.871-7.12 15.871-15.871 15.871z"/><path d="m251.661 203.694c4.142 0 7.5-3.357 7.5-7.5s-3.358-7.5-7.5-7.5h-7.707c-7.447 0-13.505 6.059-13.505 13.505v69.857c0 7.447 6.059 13.506 13.505 13.506h7.707c4.142 0 7.5-3.357 7.5-7.5s-3.358-7.5-7.5-7.5h-6.212v-66.868z"/><path d="m375.8 270.563c-4.142 0-7.5 3.357-7.5 7.5s3.358 7.5 7.5 7.5h7.707c7.447 0 13.505-6.059 13.505-13.506v-69.857c0-7.446-6.059-13.505-13.505-13.505h-7.707c-4.142 0-7.5 3.357-7.5 7.5s3.358 7.5 7.5 7.5h6.212v66.868z"/><path d="m279.291 257.729c1.47 1.503 3.416 2.257 5.363 2.257 1.891 0 3.784-.711 5.243-2.138 2.962-2.896 3.015-7.644.12-10.605l-12.655-12.943 11.576-10.749c3.035-2.818 3.211-7.564.392-10.6-2.817-3.035-7.563-3.212-10.599-.393l-17.215 15.986c-1.482 1.377-2.346 3.293-2.395 5.315-.048 2.021.721 3.978 2.135 5.424z"/><path d="m333.814 212.95c-2.819 3.035-2.643 7.781.392 10.6l11.576 10.749-12.655 12.943c-2.896 2.962-2.842 7.71.12 10.605 1.459 1.427 3.351 2.138 5.243 2.138 1.947 0 3.894-.754 5.363-2.257l18.035-18.445c1.414-1.446 2.184-3.402 2.135-5.424s-.913-3.938-2.395-5.315l-17.215-15.986c-3.036-2.82-7.78-2.642-10.599.392z"/><path d="m310.225 216.197-9.749 38.148c-1.025 4.013 1.396 8.098 5.41 9.123.623.159 1.248.235 1.862.235 3.345 0 6.395-2.255 7.261-5.646l9.749-38.148c1.025-4.013-1.396-8.098-5.41-9.123-4.013-1.023-8.098 1.398-9.123 5.411z"/><path d="m118.176 265.566c0-5.834-4.747-10.581-10.581-10.581h-18.455c-5.834 0-10.581 4.747-10.581 10.581v18.456c0 5.834 4.747 10.581 10.581 10.581h18.456c5.834 0 10.581-4.747 10.581-10.581v-18.456zm-15 14.038h-9.618v-9.618h9.618z"/><path d="m143.621 282.294h20.044c4.142 0 7.5-3.357 7.5-7.5s-3.358-7.5-7.5-7.5h-20.044c-4.142 0-7.5 3.357-7.5 7.5s3.358 7.5 7.5 7.5z"/><path d="m107.596 309.088h-18.456c-5.834 0-10.581 4.747-10.581 10.581v18.456c0 5.834 4.747 10.581 10.581 10.581h18.456c5.834 0 10.581-4.747 10.581-10.581v-18.456c-.001-5.834-4.747-10.581-10.581-10.581zm-4.42 24.618h-9.618v-9.618h9.618z"/><path d="m143.621 336.397h31.044c4.142 0 7.5-3.357 7.5-7.5s-3.358-7.5-7.5-7.5h-31.044c-4.142 0-7.5 3.357-7.5 7.5s3.358 7.5 7.5 7.5z"/></svg>